<svg xmlns:dc="http://purl.org/dc/elements/1.1/" xmlns:cc="http://creativecommons.org/ns#" xmlns:rdf="http://www.w3.org/1999/02/22-rdf-syntax-ns#" xmlns:svg="http://www.w3.org/2000/svg" xmlns="http://www.w3.org/2000/svg" xmlns:sodipodi="http://sodipodi.sourceforge.net/DTD/sodipodi-0.dtd" xmlns:inkscape="http://www.inkscape.org/namespaces/inkscape" version="1.1" x="0px" y="0px" viewBox="0 0 100 125" xml:space="preserve"><path d="M 14.583588,12.5 C 13.432025,12.5 12.5,13.43203 12.5,14.58359 L 12.5,25 2.0835877,25 C 0.93202516,25 0,25.93203 0,27.08359 l 0,52.0832 C 0,83.76269 3.7396424,87.5 8.3335877,87.5 l 83.3332053,0 C 96.260543,87.5 100,83.76251 100,79.16641 l 0,-64.58282 C 100,13.43203 99.067975,12.5 97.916412,12.5 l -83.332824,0 z m 2.082824,4.16641 79.166795,0 0,62.5 3.81e-4,0 c 0,2.29688 -1.867967,4.1668 -4.166795,4.1668 l -76.119231,0 c 0.712109,-1.22676 1.11885,-2.65117 1.11885,-4.1668 l 0,-62.5 z m 7.309342,7.62749 c -1.151563,0 -2.083207,0.93164 -2.083207,2.08321 0,1.15156 0.931644,2.08358 2.083207,2.08358 l 29.166793,0 c 1.151562,0 2.083207,-0.93202 2.083207,-2.08358 0,-1.15157 -0.931645,-2.08321 -2.083207,-2.08321 l -29.166793,0 z m -19.8089603,4.87251 8.3332063,0 0,50 c 0,2.29688 -1.867584,4.1668 -4.1664123,4.1668 -2.2990234,0 -4.166794,-1.86992 -4.166794,-4.1668 l 0,-50 z m 19.8089603,2.7546 c -1.151563,0 -2.083207,0.93164 -2.083207,2.0832 0,1.15156 0.931644,2.08359 2.083207,2.08359 l 65.494918,0 c 1.151562,0 2.083207,-0.93203 2.083207,-2.08359 0,-1.15156 -0.931645,-2.0832 -2.083207,-2.0832 l -65.494918,0 z m 0,7.20329 c -1.151563,0 -2.083207,0.93164 -2.083207,2.0832 0,1.15157 0.931644,2.08359 2.083207,2.08359 l 65.494918,0 c 1.151562,0 2.083207,-0.93202 2.083207,-2.08359 0,-1.15156 -0.931645,-2.0832 -2.083207,-2.0832 l -65.494918,0 z M 22.916412,50 c -1.151562,0 -2.083205,0.93203 -2.083205,2.08359 l 0,20.8332 C 20.833402,74.06816 21.765045,75 22.916412,75 l 29.166795,0 c 1.151563,0 2.083205,-0.93203 2.083205,-2.08359 l 0,-20.83282 C 54.166412,50.93203 53.23477,50 52.083207,50 L 22.916412,50 Z M 25,54.16641 l 25,0 0,16.6668 -25,0 0,-16.6668 z m 35.416412,0 c -1.151562,0 -2.083205,0.93203 -2.083205,2.08359 0,1.15156 0.931643,2.08359 2.083205,2.08359 l 29.166795,0 c 1.151563,0 2.083205,-0.93203 2.083205,-2.08359 0,-1.15156 -0.931262,-2.08359 -2.082824,-2.08359 l -29.167176,0 z m 0,8.33359 c -1.151562,0 -2.083205,0.93203 -2.083205,2.08359 0,1.15156 0.931643,2.0832 2.083205,2.0832 l 29.166795,0 c 1.151563,0 2.083205,-0.93164 2.083205,-2.0832 0,-1.15156 -0.931262,-2.08359 -2.082824,-2.08359 l -29.167176,0 z m 0,8.33359 c -1.151562,0 -2.083205,0.93164 -2.083205,2.0832 0,1.15157 0.931643,2.08359 2.083205,2.08359 l 29.166795,0 c 1.151563,0 2.083205,-0.93202 2.083205,-2.08359 0,-1.15156 -0.931262,-2.0832 -2.082824,-2.0832 l -29.167176,0 z"/><text x="0" y="115" fill="#000000" font-size="5px" font-weight="bold" font-family="'Helvetica Neue', Helvetica, Arial-Unicode, Arial, Sans-serif">Created by alison</text><text x="0" y="120" fill="#000000" font-size="5px" font-weight="bold" font-family="'Helvetica Neue', Helvetica, Arial-Unicode, Arial, Sans-serif">from the Noun Project</text></svg>