<svg xmlns="http://www.w3.org/2000/svg" data-name="Layer 1" viewBox="0 0 100 125" x="0px" y="0px"><title>25</title><path d="M95,45.20324c0-18.7187-20.14582-33.89586-45-33.89586S5,26.48454,5,45.20324C5,63.93241,25.14582,79.10957,50,79.10957a58.982,58.982,0,0,0,12.52086-1.323l24.875,10.84377a.72779.72779,0,0,0,.99995-.83335L83.69791,67.6825C90.72916,61.69294,95,53.82828,95,45.20324ZM56.24624,61.69243a6.24624,6.24624,0,0,1-12.49248,0V47.75032a6.24624,6.24624,0,0,1,12.49248,0Zm-6.246-26.72218a6.246,6.246,0,1,1,6.246-6.246A6.24607,6.24607,0,0,1,50.00026,34.97025Z"/><text x="0" y="115" fill="#000000" font-size="5px" font-weight="bold" font-family="'Helvetica Neue', Helvetica, Arial-Unicode, Arial, Sans-serif">Created by Hrbon</text><text x="0" y="120" fill="#000000" font-size="5px" font-weight="bold" font-family="'Helvetica Neue', Helvetica, Arial-Unicode, Arial, Sans-serif">from the Noun Project</text></svg>