<svg xmlns="http://www.w3.org/2000/svg" viewBox="0 0 64 80" x="0px" y="0px"><title>User Interface 2</title><path d="M6,17a14.08,14.08,0,0,0-3.91,9c-.67,7.12,2.35,15,8.27,21.76C16.11,54.31,23.14,59,30.16,60.94a25.48,25.48,0,0,0,6.87,1,15.47,15.47,0,0,0,10.43-3.55A7.83,7.83,0,0,0,50.15,50c-.64-2-3.47-3-5.09-3.43-5.93-1.49-7.1-1.82-9.9-2.6-1.95-.56-3.11,1.23-3.87,2.42-.34.53-1.06,1.65-1.41,1.76-2.1-.56-4.69-2.38-7.4-5.15H58a2,2,0,0,0,2-2V4S60,4,60,4a1.83,1.83,0,0,0-.09-.52s0,0,0,0,0,0,0,0a1.83,1.83,0,0,0-.26-.5s0,0,0,0a1.56,1.56,0,0,0-.39-.38v0a2,2,0,0,0-.51-.25l-.07,0A2.26,2.26,0,0,0,58,2H8a2.12,2.12,0,0,0-.57.09l-.08,0a1.8,1.8,0,0,0-.5.25l0,0a1.56,1.56,0,0,0-.39.38l-.05,0a1.83,1.83,0,0,0-.26.5l0,0a.07.07,0,0,1,0,0A2.27,2.27,0,0,0,6,4S6,4,6,4V17ZM34.66,48.55c.09-.15.2-.32.31-.48,2.27.63,3.8,1,9.12,2.38a6.53,6.53,0,0,1,2.3.95,4.14,4.14,0,0,1-1.57,4h0c-3,2.65-8,3.27-13.58,1.7-6.29-1.76-12.64-6-17.88-11.94S5.51,32.42,6.07,26.4c.28-3,1.43-5.55,3.16-6.89a5.3,5.3,0,0,1,2.19-1l.75-.15c.59-.12,1.18-.24,1.59-.3.05.14.1.34.17.6s1.77,7,2.7,10.74c-2.25,1.6-5.72,4.17-4.22,7a4.94,4.94,0,0,0,.27.47,45.72,45.72,0,0,0,3.81,5.43h0c3,3.76,7.63,8.5,12.37,9.75C31.92,52.81,33.7,50,34.66,48.55ZM19,39h0c-.3-.4-.59-.78-.85-1.14L18,37.68l-.68-1-.12-.19-.54-.81-.07-.12c-.16-.25-.31-.48-.42-.67a16,16,0,0,1,2.94-2.43c1-.72,2.07-1.46,1.68-2.82-.54-2.18-2.89-11.6-3-12.08-1.07-4.07-3-3.88-6.42-3.18l-.75.15c-.21,0-.41.09-.62.15V8.16L31.76,25.27a2,2,0,0,0,2.48,0L56,8.16V39ZM52.22,6,33,21.16,13.78,6Z"/><text x="0" y="79" fill="#000000" font-size="5px" font-weight="bold" font-family="'Helvetica Neue', Helvetica, Arial-Unicode, Arial, Sans-serif">Created by Lagot Design</text><text x="0" y="84" fill="#000000" font-size="5px" font-weight="bold" font-family="'Helvetica Neue', Helvetica, Arial-Unicode, Arial, Sans-serif">from the Noun Project</text></svg>