<svg xmlns="http://www.w3.org/2000/svg" data-name="Layer 2" viewBox="0 0 100 125" x="0px" y="0px"><title>Community</title><path d="M50,31.83A1,1,0,0,1,49.5,30l1.74-1L64,21.57A12.07,12.07,0,0,1,69.22,20l3.67-.22L77.68,17a1,1,0,1,1,1,1.73l-5,2.89a.94.94,0,0,1-.44.13l-3.9.24A9.87,9.87,0,0,0,65,23.3L50.5,31.7A1,1,0,0,1,50,31.83Z"/><path d="M50,45.17a1,1,0,0,1-1-1,1.89,1.89,0,0,0-1.89-1.89,1.77,1.77,0,0,0-.9.25,1,1,0,0,1-.52.15,1,1,0,0,1-1-1,3.85,3.85,0,0,1,1.94-3.38l8.67-5a1,1,0,0,1,1,1.74l-8.67,5a1.42,1.42,0,0,0-.34.25A3.88,3.88,0,0,1,50,41.57a3.87,3.87,0,0,1,2.89-1.29,3.7,3.7,0,0,1,1.76.44,1,1,0,0,1,.68.94v0a1,1,0,0,1-1,1,1,1,0,0,1-.54-.15,1.77,1.77,0,0,0-.9-.25A1.89,1.89,0,0,0,51,44.17,1,1,0,0,1,50,45.17Z"/><path d="M55.78,35.17a1,1,0,0,1-.5-1.87L57.55,32a1,1,0,0,1,1.37.36,1,1,0,0,1-.37,1.37L56.28,35A.93.93,0,0,1,55.78,35.17Z"/><path d="M56.41,43.38a1,1,0,0,1-.33-.05L54,42.61a1,1,0,0,1-.17-1.82L60.44,37a1,1,0,1,1,1,1.73l-4.71,2.72h0a1,1,0,0,1-.33,1.94Z"/><path d="M61.55,51.83a1,1,0,0,1-1-1V44.17a1,1,0,0,1,.5-.86L63.33,42a1,1,0,0,1,1.36.36,1,1,0,0,1-.36,1.37l-1.78,1V49.1l2.59-1.48a1,1,0,1,1,1,1.73L62.05,51.7A1,1,0,0,1,61.55,51.83Z"/><path d="M67.23,54.79a4.17,4.17,0,0,1-1-.12,3.86,3.86,0,0,1-2.38-1.82,3.7,3.7,0,0,1-.52-1.94,3.87,3.87,0,0,1,1.74-3.26l.09-.06.1-.06,3.16-1.82a1,1,0,0,1,1.36.36,1,1,0,0,1-.36,1.37l-3.11,1.79h0l-.16.1a1.84,1.84,0,0,0-.81,1.57,1.75,1.75,0,0,0,.24.92,1.86,1.86,0,0,0,1.17.9,1.81,1.81,0,0,0,1.4-.19l7.52-4.34a9.8,9.8,0,0,0,4.88-7.85l.29-4.62a1,1,0,0,1,.49-.8l5-2.9a1,1,0,1,1,1,1.72l-4.54,2.64-.25,4.09a11.8,11.8,0,0,1-5.88,9.45l-7.51,4.33A3.8,3.8,0,0,1,67.23,54.79Z"/><path d="M88.3,36.4a1,1,0,0,1-.87-.5l-11.55-20a1,1,0,0,1,.36-1.37l5-2.89a1,1,0,0,1,1.36.37L94.17,32a1,1,0,0,1,.1.76,1,1,0,0,1-.47.61l-5,2.89A1,1,0,0,1,88.3,36.4ZM78.11,15.75,88.66,34l3.28-1.89L81.38,13.87Z"/><path d="M44.22,35.17a.93.93,0,0,1-.5-.14l-2.27-1.31a1,1,0,0,1-.37-1.37A1,1,0,0,1,42.45,32l2.27,1.31a1,1,0,0,1-.5,1.87Z"/><path d="M50,31.83a1,1,0,0,1-.5-.13l-6-3.43a1,1,0,1,1,1-1.74l6,3.43a1,1,0,0,1-.5,1.87Z"/><path d="M45.67,42.66a1,1,0,0,1-.5-.13l-6.61-3.81a1,1,0,1,1,1-1.73l6.61,3.8a1,1,0,0,1-.5,1.87Z"/><path d="M45.65,40.56a3.89,3.89,0,0,1-3.36-2,4,4,0,0,1-.51-1.93,3.88,3.88,0,0,1,1.94-3.38L49.5,30a1,1,0,1,1,1,1.74L44.72,35a1.83,1.83,0,0,0-.94,1.64,1.88,1.88,0,0,0,2.83,1.62l2.89-1.66a1,1,0,1,1,1,1.74L47.61,40A4,4,0,0,1,45.65,40.56Z"/><path d="M44.22,35.17a.93.93,0,0,1-.5-.14l-2.27-1.31a1,1,0,0,1-.37-1.37A1,1,0,0,1,42.45,32l2.27,1.31a1,1,0,0,1-.5,1.87Z"/><path d="M38.44,45.17a1,1,0,0,1-.5-.13l-2.27-1.32a1,1,0,0,1-.36-1.37A1,1,0,0,1,36.67,42L39,43.31a1,1,0,0,1,.36,1.36A1,1,0,0,1,38.44,45.17Z"/><path d="M45.67,42.66a1,1,0,0,1-.5-.13l-6.61-3.81a1,1,0,1,1,1-1.73l6.61,3.8a1,1,0,0,1-.5,1.87Z"/><path d="M38.44,51.83A1,1,0,0,1,38,51.7L23.41,43.32a12,12,0,0,1-3.95-3.73l-2-3.05-4.8-2.77a1,1,0,0,1,1-1.73l5,2.89a1,1,0,0,1,.34.31l2.15,3.25a9.75,9.75,0,0,0,3.28,3.1L38.94,50a1,1,0,0,1-.5,1.86Z"/><path d="M38.44,45.17a1,1,0,0,1-.5-.13l-2.27-1.32a1,1,0,0,1-.36-1.37A1,1,0,0,1,36.67,42L39,43.31a1,1,0,0,1,.36,1.36A1,1,0,0,1,38.44,45.17Z"/><path d="M47.21,29.77a3.79,3.79,0,0,1-1.94-.52l-3.15-1.82a1,1,0,1,1,1-1.73l3.15,1.82a1.89,1.89,0,0,0,1.89-3.27l-7.51-4.33a9.77,9.77,0,0,0-9.23-.3l-4.16,2.06a1,1,0,0,1-.94,0l-5-2.88a1,1,0,0,1,1-1.73l4.55,2.61,3.68-1.82a11.76,11.76,0,0,1,11.12.35l7.51,4.34a3.89,3.89,0,0,1-1.95,7.25Z"/><path d="M11.7,36.4a1,1,0,0,1-.5-.13l-5-2.89a1,1,0,0,1-.47-.61,1,1,0,0,1,.1-.76L17.39,12a1,1,0,0,1,1.36-.37l5,2.89a1,1,0,0,1,.36,1.37l-11.55,20A1,1,0,0,1,11.7,36.4ZM8.06,32.15,11.34,34,21.89,15.75l-3.27-1.88Z"/><path d="M44.22,55.17a1,1,0,0,1-1-1v-10a1.89,1.89,0,1,0-3.77,0v6.66a1,1,0,0,1-2,0V44.17a3.89,3.89,0,1,1,7.77,0v10A1,1,0,0,1,44.22,55.17Z"/><path d="M44.22,55.17a1,1,0,0,1-1-1v-10a3.85,3.85,0,0,1,2-3.36l.11-.05a3.72,3.72,0,0,1,1.82-.48A3.89,3.89,0,0,1,51,44.17v5a1,1,0,0,1-2,0v-5a1.89,1.89,0,0,0-1.89-1.89,1.77,1.77,0,0,0-.9.25l-.14.07a1.88,1.88,0,0,0-.85,1.57v10A1,1,0,0,1,44.22,55.17Z"/><path d="M61.55,45.17a1,1,0,0,1-1-1,1.89,1.89,0,0,0-1.88-1.89A1.83,1.83,0,0,0,57.2,43a1,1,0,0,1-1.58-1.23,3.84,3.84,0,0,1,3.05-1.49,3.89,3.89,0,0,1,3.88,3.89A1,1,0,0,1,61.55,45.17Z"/><path d="M58.67,82.72a1,1,0,0,1-1-1V76a1,1,0,0,1,.1-.45L59.52,72a9.75,9.75,0,0,0,1-4.38V50.83a1,1,0,0,1,2,0V67.62a11.89,11.89,0,0,1-1.24,5.27l-1.64,3.29v5.54A1,1,0,0,1,58.67,82.72Z"/><path d="M55.78,55.17a1,1,0,0,1-1-1v-10a1.86,1.86,0,0,0-.86-1.57l-.13-.07a1.77,1.77,0,0,0-.9-.25A1.89,1.89,0,0,0,51,44.17v5a1,1,0,0,1-2,0v-5a3.89,3.89,0,0,1,3.89-3.89,3.79,3.79,0,0,1,1.83.48l.1.05a3.85,3.85,0,0,1,2,3.36v10A1,1,0,0,1,55.78,55.17Z"/><path d="M50,57.81a1,1,0,0,1-1-1V49.17a1,1,0,0,1,2,0v7.64A1,1,0,0,1,50,57.81Z"/><path d="M55.78,57.81a1,1,0,0,1-1-1V54.17a1,1,0,0,1,2,0v2.64A1,1,0,0,1,55.78,57.81Z"/><path d="M38.45,56.73a1,1,0,0,1-1-1v-4.9a1,1,0,0,1,2,0v4.9A1,1,0,0,1,38.45,56.73Z"/><path d="M44.22,57.81a1,1,0,0,1-1-1V54.17a1,1,0,0,1,2,0v2.64A1,1,0,0,1,44.22,57.81Z"/><path d="M41.33,82.72a1,1,0,0,1-1-1V76.48l-3.41-2.27a11.78,11.78,0,0,1-5.25-9.82V55.73a3.89,3.89,0,0,1,7.78,0v3.64a1,1,0,0,1-2,0V55.73a1.89,1.89,0,0,0-3.78,0v8.66A9.78,9.78,0,0,0,38,72.55l3.86,2.56a1,1,0,0,1,.44.84v5.77A1,1,0,0,1,41.33,82.72Z"/><path d="M61.55,88.5H38.45a1,1,0,0,1-1-1V81.72a1,1,0,0,1,1-1h23.1a1,1,0,0,1,1,1V87.5A1,1,0,0,1,61.55,88.5Zm-22.1-2h21.1V82.72H39.45Z"/><text x="0" y="115" fill="#000000" font-size="5px" font-weight="bold" font-family="'Helvetica Neue', Helvetica, Arial-Unicode, Arial, Sans-serif">Created by Andreas Vögele</text><text x="0" y="120" fill="#000000" font-size="5px" font-weight="bold" font-family="'Helvetica Neue', Helvetica, Arial-Unicode, Arial, Sans-serif">from the Noun Project</text></svg>