<svg xmlns="http://www.w3.org/2000/svg" viewBox="0 0 100 125" x="0px" y="0px"><title>Whatsapp</title><g data-name="Iconos"><path d="M74.61,60.09A4.7,4.7,0,0,0,72.4,58.5l-.62-.3c-.06,0-6.73-3.29-8-3.75-.94-.34-2.88-1-4.34,1.13-.65,1-2.62,3.27-3.53,4.3-.08.09-.14.13-.14.14a1.64,1.64,0,0,1-.58-.21c-.2-.1-.49-.22-.83-.37a28.4,28.4,0,0,1-8.11-5,32.55,32.55,0,0,1-6.11-7.5L40,46.78a3.75,3.75,0,0,1,.33-.35c.4-.39.83-.91,1.24-1.4l.58-.68a8.27,8.27,0,0,0,1.2-1.89l.15-.31a3.51,3.51,0,0,0-.09-3.34c-.18-.35-1.37-3.2-2.24-5.28l-1.27-3.05c-1.07-2.53-2.45-2.85-3.73-2.86H36c-.7,0-1.49,0-2.29,0a5.73,5.73,0,0,0-4.17,1.9l-.21.22A14,14,0,0,0,25.14,40c0,5.46,3.5,10.65,5,12.64l.17.25c3.34,4.7,10.39,13.21,20.13,17.35a67.29,67.29,0,0,0,6.71,2.44,16.41,16.41,0,0,0,4.91.74,19.2,19.2,0,0,0,3-.24c2.39-.35,7.72-2.91,9-6.36.83-2.3,1.3-5.43.54-6.69Zm-3.36,5.66c-.69,1.88-4.61,4.13-6.59,4.43a14.78,14.78,0,0,1-6.6-.4,66.64,66.64,0,0,1-6.43-2.34c-9.06-3.85-15.7-11.88-18.85-16.33-.11-.16-.19-.27-.25-.34-1-1.35-4.39-6.13-4.39-10.81a11.06,11.06,0,0,1,3.4-8.19l.24-.25a2.77,2.77,0,0,1,2-.94c.75,0,1.49,0,2.14,0h.34c.32,0,.51,0,.94,1,.32.75.79,1.86,1.28,3,1.31,3.14,2.12,5.08,2.32,5.48s.16.51.1.63l-.17.32a4.79,4.79,0,0,1-.78,1.26l-.61.73a15,15,0,0,1-1,1.17,3.13,3.13,0,0,0-.74,4.15,35.39,35.39,0,0,0,6.71,8.22,31.49,31.49,0,0,0,8.91,5.55l.69.3a3.29,3.29,0,0,0,4.28-.63c.58-.65,2.92-3.35,3.77-4.6.08-.12.14-.18.15-.2a3.49,3.49,0,0,1,.7.2c.9.32,6.22,2.89,7.72,3.62l.65.32c.31.14.67.32.88.44A10.91,10.91,0,0,1,71.25,65.75Z"/><path d="M20.39,21.85a40.19,40.19,0,0,0-6.3,49.88L8.62,89.36A1.51,1.51,0,0,0,9,90.86a1.48,1.48,0,0,0,1.49.38l18-5.39a41.81,41.81,0,0,0,50.65-6.18,40.42,40.42,0,0,0,0-57.82A42,42,0,0,0,20.39,21.85ZM77,77.53a38.83,38.83,0,0,1-47.6,5.4,1.46,1.46,0,0,0-.78-.22,1.57,1.57,0,0,0-.7.17L12.32,87.56l4.74-15.29a1.51,1.51,0,0,0,0-1.52A37.22,37.22,0,0,1,22.49,24,39,39,0,0,1,77,24a37.43,37.43,0,0,1,0,53.54Z"/></g><text x="0" y="115" fill="#000000" font-size="5px" font-weight="bold" font-family="'Helvetica Neue', Helvetica, Arial-Unicode, Arial, Sans-serif">Created by Fran Couto</text><text x="0" y="120" fill="#000000" font-size="5px" font-weight="bold" font-family="'Helvetica Neue', Helvetica, Arial-Unicode, Arial, Sans-serif">from the Noun Project</text></svg>