<svg xmlns:dc="http://purl.org/dc/elements/1.1/" xmlns:cc="http://creativecommons.org/ns#" xmlns:rdf="http://www.w3.org/1999/02/22-rdf-syntax-ns#" xmlns:svg="http://www.w3.org/2000/svg" xmlns="http://www.w3.org/2000/svg" xmlns:sodipodi="http://sodipodi.sourceforge.net/DTD/sodipodi-0.dtd" xmlns:inkscape="http://www.inkscape.org/namespaces/inkscape" version="1.1" x="0px" y="0px" viewBox="0 0 100 125"><g transform="translate(0,-952.36218)"><path style="text-indent:0;text-transform:none;direction:ltr;block-progression:tb;baseline-shift:baseline;color:#000000;enable-background:accumulate;" d="m 37.112582,962.62266 c 0.2308,0.006 0.4606,0.052 0.6757,0.13583 0.2151,0.0838 0.4156,0.20525 0.5895,0.35712 0.1739,0.15187 0.3212,0.33411 0.4332,0.53599 0.1121,0.20189 0.1888,0.42331 0.2257,0.65124 0.0368,0.22792 0.0338,0.46224 -0.0088,0.68915 -0.0427,0.22691 -0.1251,0.4463 -0.2423,0.64526 -0.2343,0.3979 -0.6108,0.71007 -1.0452,0.86666 -11.1271,4.19254 -19.0553,14.93648 -19.0553,27.55844 0,8.55125 3.6401,16.22525 9.45,21.61345 0.2391,0.2217 0.4227,0.5028 0.5296,0.8108 0.1069,0.308 0.1369,0.6424 0.0866,0.9645 l -2.5406,16.2628 31.185,8.1404 1.4963,-11.461 c 0.036,-0.2752 0.13,-0.5427 0.2742,-0.7798 0.1441,-0.2372 0.3383,-0.4438 0.5661,-0.6024 0.2277,-0.1586 0.4888,-0.2691 0.7613,-0.322 0.2724,-0.053 0.5559,-0.048 0.8265,0.013 l 9.3247,2.1265 1.5965,-9.7593 c 0.0379,-0.2317 0.117,-0.4566 0.2325,-0.661 0.1155,-0.2044 0.2674,-0.3882 0.4463,-0.5403 0.1789,-0.152 0.3848,-0.2721 0.6051,-0.3531 0.2204,-0.081 0.4551,-0.1228 0.6899,-0.1228 l 6.635599,0 -3.7525,-17.8282 c -0.0332,-0.1573 -0.0473,-0.3186 -0.0419,-0.4793 l 0.345,-10.24443 c -1.1755,-10.81658 -8.212099,-19.86973 -17.862499,-23.935 -0.2451,-0.0989 -0.4703,-0.24704 -0.6582,-0.43296 -0.1879,-0.18591 -0.3384,-0.40949 -0.44,-0.65355 -0.1015,-0.24406 -0.154,-0.50841 -0.1534,-0.77275 10e-4,-0.26434 0.0542,-0.52846 0.1568,-0.77207 0.1027,-0.24361 0.2542,-0.46652 0.4429,-0.6516 0.1887,-0.18509 0.4145,-0.3322 0.6601,-0.43004 0.2456,-0.0978 0.5107,-0.14635 0.775,-0.14177 0.2643,0.005 0.5276,0.0622 0.7696,0.1685 11.0113,4.63854 19.016099,14.98934 20.302799,27.33562 0.0095,0.0912 0.0128,0.18305 0.0097,0.27469 l -0.3418,10.14846 4.21,20.0025 c 0.061,0.29 0.0565,0.5936 -0.0132,0.8817 -0.0696,0.2881 -0.2043,0.5602 -0.391,0.7903 -0.1868,0.2302 -0.4254,0.418 -0.6929,0.5454 -0.2676,0.1275 -0.5637,0.1945 -0.8601,0.1945 l -7.4007,0 -1.665599,10.1828 c -0.0439,0.2686 -0.1434,0.5279 -0.2904,0.757 -0.1469,0.229 -0.3412,0.4276 -0.567,0.5795 -0.2257,0.1519 -0.4829,0.2571 -0.7504,0.3069 -0.2675,0.05 -0.5453,0.044 -0.8106,-0.016 l -9.2566,-2.1113 -1.5053,11.53 c -0.0366,0.2804 -0.1335,0.5527 -0.2823,0.7931 -0.1487,0.2405 -0.3491,0.4488 -0.5836,0.6067 -0.2344,0.158 -0.5028,0.2654 -0.7815,0.3129 -0.2787,0.048 -0.5674,0.035 -0.841,-0.036 l -35.13,-9.17 c -0.2371,-0.062 -0.4627,-0.1679 -0.6617,-0.3108 -0.199,-0.143 -0.3714,-0.3229 -0.5058,-0.5279 -0.1343,-0.2049 -0.2306,-0.4348 -0.2823,-0.6743 -0.0518,-0.2396 -0.059,-0.4886 -0.0212,-0.7308 l 2.6591,-17.02 c -6.1366,-6.0671 -9.9531,-14.4994 -9.9531,-23.80125 0,-14.29804 8.9921,-26.5341 21.645,-31.30156 0.2481,-0.0976 0.5159,-0.14486 0.7825,-0.13813 z" fill="#000000" fill-opacity="1" fill-rule="evenodd" stroke="none" marker="none" visibility="visible" display="inline" overflow="visible"/><path style="text-indent:0;text-transform:none;direction:ltr;block-progression:tb;baseline-shift:baseline;color:#000000;enable-background:accumulate;" d="m 53.855082,958.36235 c 0.2618,0 0.5235,0.0521 0.7653,0.15229 0.2419,0.1002 0.4637,0.24844 0.6489,0.43356 0.1851,0.18511 0.3333,0.40695 0.4335,0.64881 0.1002,0.24186 0.1523,0.50355 0.1523,0.76534 l 0,29.48188 c 4.0964,2.29552 6.88,6.67841 6.88,11.68817 0,4.2276 -1.9781,8.0074 -5.0528,10.4662 l 4.6647,8.0732 c 0.1348,0.2268 0.2241,0.4806 0.261,0.7418 0.037,0.2613 0.0215,0.5299 -0.0451,0.7852 -0.0667,0.2553 -0.1845,0.4972 -0.3444,0.707 -0.1599,0.2099 -0.3618,0.3877 -0.5903,0.5197 -0.2285,0.132 -0.4833,0.2182 -0.745,0.2519 -0.2617,0.034 -0.5301,0.015 -0.7845,-0.055 -0.2545,-0.07 -0.4949,-0.1905 -0.7028,-0.353 -0.2079,-0.1624 -0.3832,-0.3665 -0.5124,-0.5966 l -4.6612,-8.0672 c -1.516,0.5978 -3.1649,0.9266 -4.8872,0.9266 -7.3794,0 -13.4,-6.0206 -13.4,-13.4 0,-5.00968 2.7816,-9.39393 6.88,-11.68943 l 0,-29.48062 c 0,-0.26179 0.0521,-0.52348 0.1523,-0.76534 0.1002,-0.24186 0.2484,-0.4637 0.4335,-0.64881 0.1852,-0.18512 0.407,-0.33336 0.6489,-0.43356 0.2418,-0.10019 0.5035,-0.15226 0.7653,-0.15229 z m -2,4 -5.04,0 0,26.01938 c 0.8167,-0.15652 1.6588,-0.23938 2.52,-0.23938 0.8609,0 1.7032,0.083 2.52,0.23969 z m -2.52,29.78 c -5.2207,0 -9.4,4.18108 -9.4,9.39005 0,5.2206 4.1793,9.4 9.4,9.4 5.2089,0 9.4,-4.1815 9.4,-9.4 0,-5.20685 -4.1911,-9.39005 -9.4,-9.39005 z" fill="#000000" fill-opacity="1" fill-rule="evenodd" stroke="none" marker="none" visibility="visible" display="inline" overflow="visible"/></g><text x="0" y="115" fill="#000000" font-size="5px" font-weight="bold" font-family="'Helvetica Neue', Helvetica, Arial-Unicode, Arial, Sans-serif">Created by AliWijaya</text><text x="0" y="120" fill="#000000" font-size="5px" font-weight="bold" font-family="'Helvetica Neue', Helvetica, Arial-Unicode, Arial, Sans-serif">from the Noun Project</text></svg>