<svg xmlns="http://www.w3.org/2000/svg" xmlns:xlink="http://www.w3.org/1999/xlink" version="1.1" x="0px" y="0px" viewBox="0 0 512 640" style="enable-background:new 0 0 512 512;" xml:space="preserve"><g><path d="M465.558,209.939c-0.01-0.022-0.003-0.048-0.013-0.069L412.189,93.158V57.718c0-3.247-2.643-5.89-5.89-5.89h-65.596v-6.623   c0-7.384-6.005-13.404-13.389-13.404H185.318c-7.384,0-13.404,6.019-13.404,13.404v6.623h-65.582c-3.247,0-5.89,2.643-5.89,5.89   V91.88c-0.023,0.048-0.078,0.067-0.101,0.116L46.454,209.87c-0.01,0.022-0.003,0.048-0.013,0.071   c-0.323,0.728-0.519,1.525-0.519,2.371v35.269c0,17.318,12.648,31.649,29.163,34.472v192.256c0,3.247,2.643,5.89,5.89,5.89h223.94   h91.8h34.307c3.247,0,5.89-2.643,5.89-5.89V282.053c16.516-2.823,29.163-17.153,29.163-34.472v-35.269   C466.077,211.465,465.882,210.668,465.558,209.939z M451.021,206.422h-44.914l-34.641-106.094h31.055L451.021,206.422z    M340.703,63.608h59.706v24.94h-59.706V63.608z M359.097,100.328l34.641,106.094h-45.39l-20.78-106.094h7.244H359.097z    M395.956,218.202v29.379c0,12.843-10.444,23.288-23.273,23.288c-12.843,0-23.288-10.444-23.288-23.288v-29.379H395.956z    M291.068,218.202h46.547v29.379c0,12.843-10.444,23.288-23.273,23.288c-12.829,0-23.273-10.444-23.273-23.288V218.202z    M290.694,206.422l-6.931-106.094h31.81l20.78,106.094H290.694z M183.695,45.205c0-0.905,0.718-1.623,1.623-1.623h141.996   c0.891,0,1.609,0.718,1.609,1.623v43.343H183.695V45.205z M279.288,218.202v29.379c0,12.843-10.444,23.288-23.288,23.288   c-12.829,0-23.273-10.444-23.273-23.288v-29.379H279.288z M233.123,206.422l6.931-106.094h31.907l6.931,106.094H233.123z    M175.646,206.422l20.78-106.094h31.825l-6.931,106.094H175.646z M220.946,218.202v29.379c0,12.843-10.444,23.288-23.288,23.288   c-12.829,0-23.273-10.444-23.273-23.288v-29.379H220.946z M177.805,100.328h6.626l-20.78,106.094h-45.39l34.641-106.094H177.805z    M162.605,218.202v29.379c0,12.843-10.444,23.288-23.288,23.288c-12.829,0-23.273-10.444-23.273-23.288v-29.379H162.605z    M112.223,63.608h59.692v24.94h-59.692V63.608z M109.479,100.328h31.055l-34.641,106.094H60.979L109.479,100.328z M57.703,247.581   v-29.379h46.561v29.379c0,12.843-10.444,23.288-23.288,23.288C68.147,270.869,57.703,260.425,57.703,247.581z M390.827,468.419   h-80.02v-55.885h80.02V468.419z M390.827,400.754h-80.02v-60.597h80.02V400.754z M425.133,468.419h-22.526V334.267   c0-3.247-2.643-5.89-5.89-5.89h-91.8c-3.247,0-5.89,2.643-5.89,5.89v134.152H86.867V282.054   c9.684-1.653,18.039-7.206,23.288-15.075c6.291,9.433,17.008,15.67,29.163,15.67c12.165,0,22.886-6.237,29.178-15.67   c6.291,9.433,17.008,15.67,29.163,15.67c12.165,0,22.886-6.237,29.178-15.67c6.291,9.433,17.008,15.67,29.163,15.67   c12.165,0,22.886-6.237,29.178-15.67c6.291,9.433,17.008,15.67,29.163,15.67s22.873-6.237,29.163-15.67   c6.292,9.433,17.012,15.67,29.178,15.67c12.156,0,22.873-6.237,29.163-15.67c5.248,7.869,13.604,13.422,23.288,15.075V468.419z    M454.297,247.581c0,12.843-10.444,23.288-23.273,23.288c-12.843,0-23.288-10.444-23.288-23.288v-29.379h46.561V247.581z"/><path d="M302.173,70.187h-91.944c-3.247,0-5.89,2.643-5.89,5.89s2.643,5.89,5.89,5.89h91.944c3.247,0,5.89-2.643,5.89-5.89   S305.42,70.187,302.173,70.187z"/><path d="M210.229,63.608h50.267c3.247,0,5.89-2.643,5.89-5.89c0-3.247-2.643-5.89-5.89-5.89h-50.267c-3.247,0-5.89,2.643-5.89,5.89   C204.339,60.964,206.982,63.608,210.229,63.608z"/><path d="M262.795,306.627h-140.99c-3.247,0-5.89,2.643-5.89,5.89v14.74c0,6.958,3.584,13.087,8.993,16.671v67.127   c0,3.247,2.643,5.89,5.89,5.89h123.003c3.247,0,5.89-2.643,5.89-5.89v-67.132c5.408-3.584,8.993-9.712,8.993-16.666v-14.74   C268.685,309.27,266.042,306.627,262.795,306.627z M212.284,318.407h16.421v8.85c0,4.54-3.678,8.217-8.203,8.217   c-4.54,0-8.217-3.678-8.217-8.217V318.407z M184.097,318.407h16.406v8.85c0,4.54-3.678,8.217-8.203,8.217s-8.203-3.678-8.203-8.217   V318.407z M155.896,318.407h16.421v8.85c0,4.54-3.678,8.217-8.217,8.217c-4.525,0-8.203-3.678-8.203-8.217V318.407z    M127.695,327.256v-8.85h16.421v8.85c0,4.54-3.678,8.217-8.217,8.217C131.373,335.474,127.695,331.796,127.695,327.256z    M247.912,405.164H136.689v-57.99c5.177-0.207,9.871-2.335,13.314-5.764c3.617,3.608,8.6,5.844,14.097,5.844   s10.484-2.237,14.104-5.844c3.617,3.608,8.6,5.844,14.097,5.844s10.48-2.237,14.097-5.844c3.62,3.608,8.607,5.844,14.104,5.844   c5.495,0,10.477-2.236,14.093-5.842c3.442,3.432,8.137,5.559,13.317,5.763V405.164z M256.905,327.256   c0,4.54-3.678,8.217-8.217,8.217c-4.525,0-8.203-3.678-8.203-8.217v-8.85h16.421V327.256z"/></g><text x="0" y="527" fill="#000000" font-size="5px" font-weight="bold" font-family="'Helvetica Neue', Helvetica, Arial-Unicode, Arial, Sans-serif">Created by Shakeel Ch.</text><text x="0" y="532" fill="#000000" font-size="5px" font-weight="bold" font-family="'Helvetica Neue', Helvetica, Arial-Unicode, Arial, Sans-serif">from the Noun Project</text></svg>