<svg xmlns="http://www.w3.org/2000/svg" xmlns:xlink="http://www.w3.org/1999/xlink" version="1.1" x="0px" y="0px" viewBox="0 0 512 640" enable-background="new 0 0 512 512" xml:space="preserve"><g><g><g><g><path d="M263.938,491.262c-74.338,0-134.892-60.554-134.892-134.893V277.6c0-3.84,3.052-6.893,6.892-6.893h256      c3.84,0,6.893,3.053,6.893,6.893v78.77C398.831,430.708,338.277,491.262,263.938,491.262z M142.831,284.492v71.877      c0,66.757,54.351,121.107,121.108,121.107s121.107-54.351,121.107-121.107v-71.877H142.831z"/></g><g><path d="M391.938,284.492h-256c-3.84,0-6.892-3.053-6.892-6.893v-67.938c0-36.923,30.031-66.954,66.954-66.954h135.877      c36.923,0,66.954,30.031,66.954,66.954V277.6C398.831,281.439,395.778,284.492,391.938,284.492z M142.831,270.707h242.215      v-61.045c0-29.342-23.827-53.169-53.169-53.169H196c-29.341,0-53.169,23.828-53.169,53.169V270.707z"/></g><g><path d="M263.938,284.492c-3.84,0-6.892-3.053-6.892-6.893v-177.23c0-14.671,11.913-26.584,26.584-26.584h196.923      c7.089,0,12.8-5.711,12.8-12.8c0-7.089-5.711-12.8-12.8-12.8H47.323c-14.671,0-26.585-11.914-26.585-26.584v-9.846      c0-3.84,3.052-6.893,6.893-6.893c3.84,0,6.892,3.053,6.892,6.893V21.6c0,7.089,5.711,12.8,12.8,12.8h433.23      c14.671,0,26.585,11.914,26.585,26.584c0,14.671-11.914,26.585-26.585,26.585H283.631c-7.09,0-12.801,5.711-12.801,12.8V277.6      C270.83,281.439,267.778,284.492,263.938,284.492z"/></g></g></g></g><text x="0" y="527" fill="#000000" font-size="5px" font-weight="bold" font-family="'Helvetica Neue', Helvetica, Arial-Unicode, Arial, Sans-serif">Created by Flatart</text><text x="0" y="532" fill="#000000" font-size="5px" font-weight="bold" font-family="'Helvetica Neue', Helvetica, Arial-Unicode, Arial, Sans-serif">from the Noun Project</text></svg>